<svg id="Groupe_1" data-name="Groupe 1" xmlns="http://www.w3.org/2000/svg" viewBox="640 -1.3 640 801.3">
  <defs>
    <style>
      .cls-1 {
        fill: #baf1fe;
      }

      .cls-2 {
        fill: #76e4fd;
        opacity: 0.242;
      }
    </style>
  </defs>
  <rect id="Rectangle_2" data-name="Rectangle 2" class="cls-1" width="640" height="800" transform="translate(640)"/>
  <rect id="Rectangle_11" data-name="Rectangle 11" class="cls-2" width="55.076" height="55.076" transform="matrix(-0.966, -0.259, 0.259, -0.966, 704.863, 684.232)"/>
  <rect id="Rectangle_12" data-name="Rectangle 12" class="cls-2" width="15.076" height="15.076" transform="matrix(-0.966, -0.259, 0.259, -0.966, 1147.92, 518.248)"/>
  <path id="Soustraction_11" data-name="Soustraction 11" class="cls-2" d="M30.641,67.29H0v-.077a67.213,67.213,0,1,1,134.426,0v.076H103.784v-.077a36.572,36.572,0,1,0-73.143,0v.077Z" transform="translate(1094.587 747.067) rotate(-75)"/>
  <path id="Soustraction_12" data-name="Soustraction 12" class="cls-2" d="M56.193,52.448H29L63.065,0,82.188,12.419Z" transform="translate(1264.971 52.682) rotate(-180)"/>
  <rect id="Rectangle_16" data-name="Rectangle 16" class="cls-2" width="80.502" height="13.802" transform="translate(847.628 791.273) rotate(-87)"/>
  <path id="Soustraction_13" data-name="Soustraction 13" class="cls-2" d="M41.481,82.962A41.481,41.481,0,1,1,82.962,41.481,41.528,41.528,0,0,1,41.481,82.962Zm0-64.052A22.571,22.571,0,1,0,64.052,41.481,22.6,22.6,0,0,0,41.481,18.911Z" transform="matrix(-0.966, -0.259, 0.259, -0.966, 792.14, 100.308)"/>
  <path id="Soustraction_14" data-name="Soustraction 14" class="cls-2" d="M19.393,38.786A19.393,19.393,0,1,1,38.786,19.393,19.415,19.415,0,0,1,19.393,38.786Zm0-29.945A10.552,10.552,0,1,0,29.945,19.393,10.564,10.564,0,0,0,19.393,8.841Z" transform="matrix(-0.966, -0.259, 0.259, -0.966, 752.357, 505.406)"/>
  <path id="Soustraction_16" data-name="Soustraction 16" class="cls-2" d="M18.679,41.019H0v-.047a40.972,40.972,0,1,1,81.945,0v.047H63.266v-.047a22.294,22.294,0,1,0-44.588,0v.047Z" transform="translate(907.822 276.476) rotate(-96)"/>
  <path id="Soustraction_18" data-name="Soustraction 18" class="cls-2" d="M13.366,29.351H0v-.033a29.318,29.318,0,1,1,58.635,0v.033H45.27v-.033a15.952,15.952,0,1,0-31.9,0v.033Z" transform="matrix(-0.731, 0.682, -0.682, -0.731, 1063.18, 589.453)"/>
  <path id="Tracé_4" data-name="Tracé 4" class="cls-2" d="M70.945,0V70.945H0Z" transform="translate(1206.057 407.855) rotate(-139)"/>
  <path id="Tracé_5" data-name="Tracé 5" class="cls-2" d="M53.308,0V53.308H0Z" transform="translate(694.979 320.147) rotate(-14)"/>
</svg>
