<svg id="Groupe_1" data-name="Groupe 1" xmlns="http://www.w3.org/2000/svg" viewBox="640 -0.374 640 800.374">
  <defs>
    <style>
      .cls-1 {
        fill: #baf1fe;
      }

      .cls-2, .cls-3, .cls-4, .cls-5, .cls-6 {
        fill: #76e4fd;
      }

      .cls-2 {
        opacity: 0.097;
      }

      .cls-3 {
        opacity: 0.259;
      }

      .cls-4 {
        opacity: 0.178;
      }

      .cls-5 {
        opacity: 0.107;
      }

      .cls-6 {
        opacity: 0.091;
      }
    </style>
  </defs>
  <rect id="Rectangle_2" data-name="Rectangle 2" class="cls-1" width="640" height="800" transform="translate(640)"/>
  <path id="Soustraction_12" data-name="Soustraction 12" class="cls-2" d="M126.371,252.743A126.371,126.371,0,1,1,252.743,126.371,126.514,126.514,0,0,1,126.371,252.743Zm0-195.132a68.761,68.761,0,1,0,68.761,68.761A68.839,68.839,0,0,0,126.371,57.611Z" transform="translate(783.061 85.293)"/>
  <path id="Soustraction_16" data-name="Soustraction 16" class="cls-3" d="M67.552,148.347H0v-.169C0,66.472,66.472,0,148.178,0S296.355,66.472,296.355,148.178v.168H228.8v-.169a80.626,80.626,0,1,0-161.251,0v.169Z" transform="translate(952.296 651.539)"/>
  <path id="Tracé_4" data-name="Tracé 4" class="cls-3" d="M92.618,0V92.618H0Z" transform="matrix(-0.545, 0.839, -0.839, -0.545, 843.51, 310.147)"/>
  <path id="Soustraction_18" data-name="Soustraction 18" class="cls-4" d="M174.626,233.221h0L0,217.942,18.193,10H174.626V233.22Z" transform="translate(1105.374 -10)"/>
  <path id="Soustraction_17" data-name="Soustraction 17" class="cls-5" d="M110.58,157.363H29L131.2,0l57.377,37.262Z" transform="translate(1122.467 673.098) rotate(-90)"/>
  <path id="Soustraction_19" data-name="Soustraction 19" class="cls-5" d="M110.58,157.363H29L131.2,0l57.377,37.262Z" transform="translate(828.939 156.989) rotate(180)"/>
  <path id="Soustraction_14" data-name="Soustraction 14" class="cls-6" d="M27.928,61.33H0v-.07a61.26,61.26,0,1,1,122.52,0v.07H94.593v-.07a33.333,33.333,0,1,0-66.665,0v.07Z" transform="translate(715.383 583.259) rotate(-16)"/>
  <rect id="Rectangle_19" data-name="Rectangle 19" class="cls-3" width="29.076" height="29.076" transform="translate(719.943 499.557)"/>
</svg>
